<svg width="87" height="40" viewBox="0 0 87 40" fill="none" xmlns="http://www.w3.org/2000/svg">
<path d="M3.18363 9.77208H8.16168C8.39321 9.77208 8.56687 9.58388 8.56687 9.36672V7.55709C8.56687 7.32546 8.37874 7.15173 8.16168 7.15173H3.18363C2.9521 7.15173 2.77844 6.96353 2.77844 6.74637V3.1271C2.77844 2.89547 2.96657 2.72174 3.18363 2.72174H8.62475C8.85629 2.72174 9.02994 2.53354 9.02994 2.31639V0.492272C9.02994 0.260639 8.84182 0.0869141 8.62475 0.0869141H0.40519C0.188124 0.0869141 0 0.260639 0 0.492272V16.8514C0 17.083 0.188124 17.2567 0.40519 17.2567H8.76946C9.001 17.2567 9.17465 17.0685 9.17465 16.8514V15.0417C9.17465 14.8101 8.98653 14.6364 8.76946 14.6364H3.18363C2.9521 14.6364 2.77844 14.4482 2.77844 14.231V10.2064C2.77844 9.97476 2.96657 9.80104 3.18363 9.80104V9.77208Z" fill="white" fill-opacity="0.4"/>
<path d="M22.0828 6.31206V4.03916C22.0828 1.40433 20.8672 0.0869141 18.4795 0.0869141H12.228C11.9965 0.0869141 11.8228 0.275116 11.8228 0.492272V16.8514C11.8228 17.083 11.9965 17.3291 12.228 17.2567L14.1816 16.75C14.4131 16.6777 14.5868 16.4895 14.5868 16.2723V10.2064H16.3523C16.497 10.2064 16.6417 10.2933 16.714 10.4236C16.714 10.4236 19.5069 15.5484 20.4476 17.2712C20.5199 17.4015 20.7225 17.4594 20.8962 17.4015C21.2001 17.2857 22.6182 16.4171 22.6182 16.4171C22.8208 16.3012 22.8787 16.0551 22.7774 15.8525L19.753 10.5104C19.6227 10.2788 19.753 10.0037 19.999 9.91685C21.4171 9.39568 22.0973 8.20856 22.0973 6.31206H22.0828ZM14.5868 3.09815C14.5868 2.86651 14.7749 2.69279 14.992 2.69279H18.1467C18.957 2.69279 19.3044 3.11262 19.3044 4.09707V6.2252C19.3044 7.25307 18.9426 7.62948 17.9441 7.62948H14.992C14.7604 7.62948 14.5868 7.44127 14.5868 7.22412V3.11263V3.09815Z" fill="white" fill-opacity="0.4"/>
<path d="M28.4644 0.390933L24.3835 15.8525C24.3401 16.0841 24.4559 16.3157 24.673 16.446L26.4384 17.4449C26.6555 17.5173 26.8726 17.3581 26.9305 17.1409L28.1026 12.5227C28.146 12.3345 28.3197 12.2187 28.4933 12.2187H32.0966C32.2847 12.2187 32.4439 12.349 32.4873 12.5227L33.6595 17.1264C33.7174 17.3436 33.92 17.5173 34.1515 17.4305L35.9314 16.3447C36.163 16.1854 36.2353 16.0262 36.1775 15.7945L32.1256 0.390933C32.0821 0.217208 31.9085 0.0869141 31.7348 0.0869141H28.8696C28.6814 0.0869141 28.5223 0.217208 28.4789 0.390933H28.4644ZM31.2718 9.71418H29.3182C29.0577 9.71418 28.8551 9.46807 28.9275 9.20748L29.9115 5.37105C30.0128 4.96569 30.6061 4.96569 30.7074 5.37105L31.677 9.20748C31.7493 9.46807 31.5467 9.71418 31.2862 9.71418H31.2718Z" fill="white" fill-opacity="0.4"/>
<path d="M44.5277 0H41.4888C39.13 0 37.8855 1.36085 37.8855 3.95224V13.3768C37.8855 15.9682 39.13 17.3291 41.4888 17.3291H44.5277C46.9154 17.3291 48.131 15.9972 48.131 13.3768V3.95224C48.131 1.33189 46.9154 0 44.5277 0ZM45.367 4.01015V13.3044C45.367 14.3034 45.0342 14.7087 44.2093 14.7087H41.8361C41.0112 14.7087 40.6639 14.2889 40.6639 13.3044V4.01015C40.6639 3.04019 41.0257 2.60588 41.8361 2.60588H44.2093C45.0197 2.60588 45.367 3.02571 45.367 4.01015Z" fill="white" fill-opacity="0.4"/>
<path d="M58.6513 9.45359C58.6513 9.8879 58.058 10.0182 57.8699 9.62731L53.572 0.188254L53.5285 0.0869141H51.2276C50.9961 0.0869141 50.8224 0.275116 50.8224 0.492272V16.8514C50.8224 17.083 51.0106 17.2567 51.2276 17.2567H53.1233C53.3549 17.2567 53.5285 17.0685 53.5285 16.8514V7.87559C53.5285 7.44127 54.1363 7.31098 54.31 7.70186L58.6079 17.1554L58.6513 17.2567H60.9522C61.1837 17.2567 61.3574 17.0685 61.3574 16.8514V0.492272C61.3574 0.260639 61.1693 0.0869141 60.9522 0.0869141H59.0565C58.8249 0.0869141 58.6513 0.275116 58.6513 0.492272V9.45359Z" fill="white" fill-opacity="0.4"/>
<path d="M3.27055 32.4436H8.24859C8.48013 32.4436 8.65378 32.2554 8.65378 32.0382V30.2286C8.65378 29.9969 8.46566 29.8232 8.24859 29.8232H3.27055C3.03901 29.8232 2.86536 29.635 2.86536 29.4179V25.7986C2.86536 25.567 3.05348 25.3932 3.27055 25.3932H8.71166C8.9432 25.3932 9.11685 25.205 9.11685 24.9879V23.1927C9.11685 22.9611 8.92873 22.7874 8.71166 22.7874H0.492104C0.260567 22.7874 0.0869141 22.9756 0.0869141 23.1927V39.5518C0.0869141 39.7835 0.275038 39.9572 0.492104 39.9572H8.85637C9.08791 39.9572 9.26157 39.769 9.26157 39.5518V37.7422C9.26157 37.5105 9.07344 37.3368 8.85637 37.3368H3.27055C3.03901 37.3368 2.86536 37.1486 2.86536 36.9315V32.9068C2.86536 32.6752 3.05348 32.5015 3.27055 32.5015V32.4436Z" fill="white" fill-opacity="0.4"/>
<path d="M18.5376 22.7434H12.3006C12.069 22.7434 11.8954 22.9316 11.8954 23.1488V39.5079C11.8954 39.7395 12.0835 39.9132 12.3006 39.9132H18.5376C20.9253 39.9132 22.1409 38.5813 22.1409 35.961V26.6957C22.1409 24.0753 20.9253 22.7434 18.5376 22.7434ZM14.6738 25.7691C14.6738 25.5375 14.862 25.3638 15.079 25.3638H18.2192C19.0296 25.3638 19.3769 25.7836 19.3769 26.768V35.8886C19.3769 36.8875 19.0441 37.2929 18.2192 37.2929H15.079C14.8475 37.2929 14.6738 37.1047 14.6738 36.8875V25.7836V25.7691Z" fill="white" fill-opacity="0.4"/>
<path d="M32.5891 23.583C32.3576 23.7133 32.1839 23.9015 32.1839 24.1331V35.9754C32.1839 36.9743 31.8511 37.3796 31.0262 37.3796H28.653C27.8281 37.3796 27.4808 36.9598 27.4808 35.9754V24.1331C27.4808 23.9015 27.2782 23.6988 27.0756 23.583L25.2668 22.8157C25.0497 22.7288 24.7169 22.9315 24.7169 23.1631V36.0477C24.7169 38.6391 25.9614 40 28.3202 40H31.3591C33.7468 40 34.9624 38.6681 34.9624 36.0477V23.1631C34.9624 22.9315 34.644 22.7288 34.4125 22.8157L32.6036 23.583H32.5891Z" fill="white" fill-opacity="0.4"/>
<path d="M46.2347 30.4449H45.2068C45.0869 30.4449 44.9896 30.5422 44.9896 30.6621V39.7682C44.9896 39.8881 45.0869 39.9853 45.2068 39.9853H46.2347C46.3546 39.9853 46.4518 39.8881 46.4518 39.7682V30.6621C46.4518 30.5422 46.3546 30.4449 46.2347 30.4449Z" fill="white" fill-opacity="0.4"/>
<path d="M41.6759 30.5029H40.0551C38.7527 30.5029 38.1015 31.1978 38.1015 32.5876V37.5822C38.1015 38.972 38.7527 39.6669 40.0551 39.6669H41.6759C42.9782 39.6669 43.6294 38.972 43.6294 37.5822V32.5876C43.6294 31.1978 42.9782 30.5029 41.6759 30.5029ZM42.1679 32.7179V37.423C42.1679 38.0455 41.9797 38.2626 41.4443 38.2626H40.2866C39.7512 38.2626 39.5631 38.0455 39.5631 37.423V32.7179C39.5631 32.0954 39.7512 31.8783 40.2866 31.8783H41.4443C41.9797 31.8783 42.1679 32.0954 42.1679 32.7179Z" fill="white" fill-opacity="0.4"/>
<path d="M49.476 37.988V35.9323C49.476 35.8165 49.5628 35.7296 49.6786 35.7151L53.0937 35.4111C53.2095 35.4111 53.2963 35.3098 53.2963 35.194V30.8219C53.2963 30.7061 53.195 30.6047 53.0793 30.6047H48.2459C48.1302 30.6047 48.0289 30.7061 48.0289 30.8219V31.7484C48.0289 31.8642 48.1302 31.9656 48.2459 31.9656H51.6177C51.7335 31.9656 51.8348 32.0669 51.8348 32.1827V33.9779C51.8348 34.0937 51.7479 34.1806 51.6322 34.1951L48.217 34.4991C48.1012 34.4991 48.0144 34.6004 48.0144 34.7162V39.4358C48.0144 39.5661 48.1157 39.6529 48.2459 39.6529L53.7015 39.3634C53.8173 39.3634 53.9186 39.262 53.9041 39.1317L53.8462 38.1907C53.8462 38.0749 53.7305 37.9736 53.6147 37.988L49.693 38.2052C49.5628 38.2052 49.4615 38.1183 49.4615 37.988H49.476Z" fill="white" fill-opacity="0.4"/>
<path d="M55.916 30.4449H54.8885C54.7727 30.4449 54.6714 30.5463 54.6714 30.6621V39.7682C54.6714 39.884 54.7727 39.9853 54.8885 39.9853H55.916C56.0317 39.9853 56.133 39.884 56.133 39.7682V35.787C56.133 35.6712 56.2343 35.5698 56.3501 35.5698H57.0447C57.1605 35.5698 57.2618 35.4685 57.2618 35.3527V34.3682C57.2618 34.2524 57.1605 34.1511 57.0447 34.1511H56.3501C56.2343 34.1511 56.133 34.0497 56.133 33.9339V30.6621C56.133 30.5463 56.0317 30.4449 55.916 30.4449Z" fill="white" fill-opacity="0.4"/>
<path d="M62.948 34.5426H64.5688C65.7699 34.5426 66.3777 34.0214 66.3777 33.008V32.0814C66.3777 31.068 65.7699 30.5469 64.5688 30.5469H59.8512C58.6357 30.5469 58.0279 31.068 58.0279 32.0814V33.008C58.0279 34.0214 58.6357 34.5426 59.8512 34.5426H61.472V35.2664H57.8397C57.724 35.2664 57.6227 35.3677 57.6227 35.4836V36.3811C57.6227 36.497 57.724 36.5983 57.8397 36.5983H66.5513C66.6671 36.5983 66.7684 36.497 66.7684 36.3811V35.4836C66.7684 35.3677 66.6671 35.2664 66.5513 35.2664H62.9336V34.5426H62.948ZM60.1117 33.2541C59.6052 33.2541 59.5184 33.0804 59.5184 32.7763V32.3276C59.5184 32.0235 59.6197 31.8498 60.1117 31.8498H64.3228C64.8293 31.8498 64.9306 32.0091 64.9306 32.3276V32.7763C64.9306 33.0804 64.8293 33.2541 64.3228 33.2541H60.1117Z" fill="white" fill-opacity="0.4"/>
<path d="M59.4177 37.0612H58.3903C58.2745 37.0612 58.1732 37.1626 58.1732 37.2784V39.7684C58.1732 39.8843 58.2745 39.9856 58.3903 39.9856H66.2047C66.3204 39.9856 66.4217 39.8843 66.4217 39.7684V38.8274C66.4217 38.7116 66.3204 38.6103 66.2047 38.6103H59.8519C59.7361 38.6103 59.6348 38.5089 59.6348 38.3931V37.2639C59.6348 37.1481 59.5335 37.0468 59.4177 37.0468V37.0612Z" fill="white" fill-opacity="0.4"/>
<path d="M76.3061 30.4449H75.3361C75.2162 30.4449 75.119 30.5422 75.119 30.6621V39.7682C75.119 39.8881 75.2162 39.9853 75.3361 39.9853H76.3061C76.426 39.9853 76.5232 39.8881 76.5232 39.7682V30.6621C76.5232 30.5422 76.426 30.4449 76.3061 30.4449Z" fill="white" fill-opacity="0.4"/>
<path d="M72.9767 34.1516H72.094V32.5736C72.094 31.1259 71.573 30.4889 70.4009 30.4889H69.3445C68.1868 30.4889 67.6514 31.1549 67.6514 32.5736V37.5682C67.6514 38.987 68.1868 39.6529 69.3445 39.6529H70.4009C71.573 39.6529 72.094 39.0159 72.094 37.5682V35.5414H72.9767V39.595C72.9767 39.7108 73.078 39.8122 73.1938 39.8122H74.1489C74.2646 39.8122 74.3659 39.7108 74.3659 39.595V30.6771C74.3659 30.5613 74.2646 30.46 74.1489 30.46H73.1938C73.078 30.46 72.9767 30.5613 72.9767 30.6771V34.1516ZM69.0551 32.6026C69.0551 32.0669 69.1853 31.8787 69.5615 31.8787H70.1983C70.6035 31.8787 70.7048 32.038 70.7048 32.6026V37.5682C70.7048 38.1328 70.589 38.2921 70.1983 38.2921H69.5615C69.1708 38.2921 69.0551 38.1183 69.0551 37.5682V32.6026Z" fill="white" fill-opacity="0.4"/>
<path d="M86.0297 34.2383H79.6479C79.5322 34.2383 79.4309 34.137 79.4309 34.0212V32.1826C79.4309 32.0668 79.5322 31.9654 79.6479 31.9654H85.9429C86.0586 31.9654 86.1599 31.8641 86.1599 31.7483V30.8072C86.1599 30.6914 86.0586 30.5901 85.9429 30.5901H78.1864C78.0706 30.5901 77.9693 30.6914 77.9693 30.8072V35.382C77.9693 35.4978 78.0706 35.5992 78.1864 35.5992H86.0441C86.1599 35.5992 86.2612 35.4978 86.2612 35.382V34.441C86.2612 34.3252 86.1599 34.2238 86.0441 34.2238L86.0297 34.2383Z" fill="white" fill-opacity="0.4"/>
<path d="M77.5063 36.54V37.4955C77.5063 37.6113 77.6076 37.7127 77.7233 37.7127H79.2718C79.3875 37.7127 79.4888 37.814 79.4888 37.9298V39.7684C79.4888 39.8842 79.5901 39.9856 79.7059 39.9856H80.7333C80.8491 39.9856 80.9504 39.8842 80.9504 39.7684V37.9298C80.9504 37.814 81.0517 37.7127 81.1675 37.7127H83.0198C83.1355 37.7127 83.2368 37.814 83.2368 37.9298V39.7684C83.2368 39.8842 83.3381 39.9856 83.4539 39.9856H84.4813C84.5971 39.9856 84.6984 39.8842 84.6984 39.7684V37.9298C84.6984 37.814 84.7997 37.7127 84.9155 37.7127H86.4494C86.5652 37.7127 86.6665 37.6113 86.6665 37.4955V36.54C86.6665 36.4242 86.5652 36.3229 86.4494 36.3229H77.7378C77.6221 36.3229 77.5208 36.4242 77.5208 36.54H77.5063Z" fill="white" fill-opacity="0.4"/>
</svg>
