<svg preserveAspectRatio="none" width="100%" height="100%" overflow="visible" style="display: block;" viewBox="0 0 68 68" fill="none" xmlns="http://www.w3.org/2000/svg">
<g id="48" filter="url(#filter0_d_0_33)">
<rect x="4" width="60" height="60" rx="16" fill="url(#paint0_linear_0_33)" shape-rendering="crispEdges"/>
<path id="4" d="M33.9606 39.2451C37.114 39.2451 39.6858 39.3382 41.6755 39.5195C43.6652 39.7009 45.224 39.9961 46.3503 40.4053C47.4763 40.8144 48.2386 41.3331 48.6403 41.9658C49.042 42.5986 49.2409 43.3671 49.2409 44.2656C49.2408 45.1641 49.042 45.9405 48.6403 46.5859C48.2386 47.2313 47.4763 47.7542 46.3503 48.1465C45.224 48.5388 43.6652 48.8303 41.6755 49.0117C39.6858 49.1931 37.1139 49.2852 33.9606 49.2852C30.8072 49.2852 28.2355 49.1931 26.2458 49.0117C24.2561 48.8303 22.6982 48.5388 21.5719 48.1465C20.4458 47.7542 19.6836 47.2313 19.2819 46.5859C18.8802 45.9405 18.6813 45.1641 18.6813 44.2656C18.6813 43.3671 18.8802 42.5986 19.2819 41.9658C19.6837 41.3332 20.4459 40.8144 21.5719 40.4053C22.6982 39.9961 24.2561 39.7009 26.2458 39.5195C28.2355 39.3381 30.8072 39.2451 33.9606 39.2451ZM33.9606 41.3545C32.7331 41.3545 31.6703 41.4095 30.8444 41.5234C30.0187 41.6373 29.3617 41.8104 28.8737 42.0508C28.3858 42.2912 28.0369 42.591 27.8229 42.958C27.609 43.325 27.5036 43.7595 27.5036 44.2656C27.5036 44.7718 27.609 45.2063 27.8229 45.5732C28.0369 45.9402 28.3857 46.24 28.8737 46.4805C29.3617 46.7209 30.0187 46.8939 30.8444 47.0078C31.6703 47.1217 32.7106 47.1758 33.9606 47.1758C35.1882 47.1758 36.2211 47.1217 37.0583 47.0078C37.8952 46.8939 38.5595 46.7208 39.0475 46.4805C39.5356 46.24 39.8853 45.9403 40.0993 45.5732C40.3132 45.2063 40.4186 44.7717 40.4186 44.2656C40.4186 43.7596 40.3131 43.3249 40.0993 42.958C39.8853 42.591 39.5356 42.2912 39.0475 42.0508C38.5595 41.8104 37.8953 41.6373 37.0583 41.5234C36.2211 41.4095 35.1882 41.3545 33.9606 41.3545ZM51.4928 37.6426H16.4284V34.2676H51.4928V37.6426ZM33.9606 23.0459C36.8888 23.0459 39.2842 23.1426 41.1501 23.3408C43.0159 23.5391 44.4802 23.8264 45.5426 24.2061C46.6051 24.5857 47.3337 25.0794 47.7204 25.6826C48.1069 26.2858 48.3024 26.9818 48.3024 27.7705C48.3024 28.5847 48.107 29.2893 47.7204 29.8799C47.3337 30.4705 46.6051 30.9553 45.5426 31.335C44.4802 31.7146 43.0159 32.0019 41.1501 32.2002C39.2842 32.3985 36.8888 32.4951 33.9606 32.4951C31.0324 32.4951 28.637 32.3985 26.7712 32.2002C24.9055 32.0019 23.441 31.7146 22.3786 31.335C21.3165 30.9553 20.5885 30.4703 20.2018 29.8799C19.8151 29.2893 19.6198 28.5847 19.6198 27.7705C19.6198 26.9564 19.8152 26.2858 20.2018 25.6826C20.5884 25.0794 21.3164 24.5857 22.3786 24.2061C23.441 23.8264 24.9055 23.5391 26.7712 23.3408C28.637 23.1425 31.0324 23.0459 33.9606 23.0459ZM33.9606 25.1553C32.8608 25.1553 31.9449 25.2182 31.2204 25.3447C30.496 25.4712 29.918 25.6486 29.4938 25.8721C29.0697 26.0956 28.7725 26.3696 28.611 26.6943C28.4496 27.0192 28.3669 27.3782 28.3669 27.7705C28.3669 28.1628 28.4496 28.5219 28.611 28.8467C28.7725 29.1714 29.0697 29.4454 29.4938 29.6689C29.918 29.8924 30.496 30.0698 31.2204 30.1963C31.9449 30.3228 32.8608 30.3857 33.9606 30.3857C35.0606 30.3857 35.9773 30.3228 36.7018 30.1963C37.4262 30.0697 38.0042 29.8925 38.4284 29.6689C38.8524 29.4455 39.1487 29.1713 39.3102 28.8467C39.4716 28.5219 39.5544 28.1628 39.5544 27.7705C39.5544 27.3782 39.4717 27.0192 39.3102 26.6943C39.1487 26.3697 38.8524 26.0956 38.4284 25.8721C38.0042 25.6485 37.4262 25.4713 36.7018 25.3447C35.9773 25.2182 35.0606 25.1553 33.9606 25.1553ZM49.2409 21.5693H18.6813V18.1943H49.2409V21.5693ZM25.3376 10.7139C25.3376 10.7139 28.2431 13.3595 33.0446 13.3428C35.7495 13.3344 43.1021 13.3427 43.1325 13.3428V16.8184C43.1009 16.8186 35.0153 16.8773 32.3171 16.8184C29.614 16.7593 26.584 15.8568 25.3376 14.4014V10.7139Z" fill="var(--fill-0, white)"/>
</g>
<defs>
<filter id="filter0_d_0_33" x="0" y="0" width="68" height="68" filterUnits="userSpaceOnUse" color-interpolation-filters="sRGB">
<feFlood flood-opacity="0" result="BackgroundImageFix"/>
<feColorMatrix in="SourceAlpha" type="matrix" values="0 0 0 0 0 0 0 0 0 0 0 0 0 0 0 0 0 0 127 0" result="hardAlpha"/>
<feOffset dy="4"/>
<feGaussianBlur stdDeviation="2"/>
<feComposite in2="hardAlpha" operator="out"/>
<feColorMatrix type="matrix" values="0 0 0 0 0 0 0 0 0 0 0 0 0 0 0 0 0 0 0.25 0"/>
<feBlend mode="normal" in2="BackgroundImageFix" result="effect1_dropShadow_0_33"/>
<feBlend mode="normal" in="SourceGraphic" in2="effect1_dropShadow_0_33" result="shape"/>
</filter>
<linearGradient id="paint0_linear_0_33" x1="34" y1="59.9995" x2="66.8245" y2="21.6248" gradientUnits="userSpaceOnUse">
<stop stop-color="#355BE0"/>
<stop offset="1" stop-color="#B945CC"/>
</linearGradient>
</defs>
</svg>
